<svg xmlns="http://www.w3.org/2000/svg" id="Livello_1" data-name="Livello 1" viewBox="0 0 1150 215">
  <defs>
    <style>
      .cls-1{fill:#00a552}.cls-2{fill:#bcbcbb}
    </style>
  </defs>
  <path d="M360.5 79.3h-12.6V64.1h12.6V53c0-13.5 3.4-25 24.1-25 3.9 0 13 .3 16.5 1.2l-.9 16.1c-2.2-.7-9.2-1.2-11.5-1.2-6 0-9.1 2-9.1 10v9.9h14v15.2h-14V126h-19.1zM441.7 118.2h-.3c-4.2 6.6-11.8 9.2-19.6 9.2-11.6 0-22-6.6-22-19 0-21.4 26-21.8 41.9-21.8 0-6.8-5.6-11-12.2-11-6.3 0-11.5 2.7-15.6 7.3l-10.2-10.4a40 40 0 0127.3-10c22.3 0 28.2 11.4 28.2 32V126h-17.5zM437 98.8c-5.8 0-18.8.5-18.8 9 0 4.5 4.8 6.7 9 6.7 7.5 0 14.5-4 14.5-11.6v-4zM483 33.5a11 11 0 11-11.2 11 11 11 0 0111.1-11zm-9.6 30.6h19v61.8h-19zM508.1 64h19.1v10h.3c4-7.5 9.4-11.5 17.8-11.5a25.1 25.1 0 016.4.7v17.4a29.3 29.3 0 00-8.2-1.3c-14.5 0-16.3 8.4-16.3 20.8v25.8h-19z" class="cls-1"/>
  <path d="M563.6 29.7h19.1v41h.3c4.3-6 11.7-8.2 19.6-8.2 17.6 0 28.3 15.8 28.3 33 0 18.7-12.1 32-30.5 32-8.6 0-16-5.2-19-9.6h-.2v8.1h-17.6zm32.9 81c9.5 0 15.2-6.4 15.2-15.7s-5.7-15.7-15.2-15.7-15.3 6.4-15.3 15.7 5.7 15.7 15.3 15.7zM644 64h18.3v8.5h.3a20 20 0 0118-10c19.4 0 23 12.8 23 29.3V126h-19.2V95.6c0-7.1-.1-16.3-9.9-16.3S663 87.1 663 95.1V126h-19zM720.7 29.7h19.1v41h.3c4.3-6 11.7-8.2 19.6-8.2 17.5 0 28.2 15.8 28.2 33 0 18.7-12 32-30.4 32-8.7 0-16-5.2-19-9.6h-.3v8.1h-17.5zm32.8 81c9.6 0 15.3-6.4 15.3-15.7s-5.7-15.6-15.2-15.6-15.3 6.3-15.3 15.6 5.7 15.7 15.3 15.7z" class="cls-2"/>
  <path d="M813.1 103.3a11.7 11.7 0 11-11.7 11.7 11.7 11.7 0 0111.7-11.7zM882.5 84a11.8 11.8 0 00-9.4-4.7c-9.6 0-15.3 6.4-15.3 15.7s5.7 15.6 15.3 15.6a12.2 12.2 0 009.4-4.7l12.6 13.2a31 31 0 01-22 8.3c-19.1 0-34.4-12.7-34.4-32.5s15.3-32.4 34.4-32.4a31 31 0 0122 8.3zM936 62.5c19.1 0 34.4 12.8 34.4 32.5S955 127.5 936 127.5s-34.4-12.8-34.4-32.5 15.3-32.5 34.4-32.5zm0 48.1c9.6 0 15.3-6.3 15.3-15.6s-5.8-15.7-15.3-15.7-15.3 6.4-15.3 15.7 5.7 15.7 15.3 15.7zM1015.5 62.5c19.1 0 34.4 12.8 34.4 32.5s-15.3 32.5-34.4 32.5-34.4-12.8-34.4-32.5 15.3-32.5 34.4-32.5zm0 48.1c9.6 0 15.3-6.3 15.3-15.6s-5.7-15.7-15.3-15.7-15.3 6.4-15.3 15.7 5.8 15.7 15.3 15.7zM1064.8 64h17.6v8.2h.2a24 24 0 0119-9.7c18.3 0 30.4 13.3 30.4 32 0 17.2-10.7 33-28.2 33-8 0-15.3-2.1-19.6-8.1h-.3v28.9h-19zm32.8 46.7c9.6 0 15.3-6.4 15.3-15.7s-5.7-15.7-15.3-15.7-15.3 6.4-15.3 15.7 5.8 15.7 15.3 15.7zM380.3 177.4a7.6 7.6 0 00-2.6-2.3 7.3 7.3 0 00-3.8-1 9.4 9.4 0 00-4 .7 8.7 8.7 0 00-3 2 9.3 9.3 0 00-1.9 3.3 12.9 12.9 0 000 8 9.3 9.3 0 002 3.3 8.7 8.7 0 003 2.1 9.3 9.3 0 004 .7 7.3 7.3 0 003.7-1 7.6 7.6 0 002.6-2.3l2.9 2.2a12 12 0 01-4.3 3.3 12.7 12.7 0 01-5 1 14.1 14.1 0 01-5.6-.9 12.4 12.4 0 01-4.2-2.8 11.9 11.9 0 01-2.7-4.2 16 16 0 010-10.7 11.9 11.9 0 012.7-4.3 12.5 12.5 0 014.2-2.8 14.1 14.1 0 015.6-1 12.7 12.7 0 015 1.1 12 12 0 014.3 3.3zM417 184.2a13.8 13.8 0 01-1 5.3 12.5 12.5 0 01-7 7 14.4 14.4 0 01-5.4 1 14.1 14.1 0 01-5.4-1 12.8 12.8 0 01-4.3-2.8 13 13 0 01-2.8-4.2 14.7 14.7 0 010-10.7 13 13 0 012.8-4.2 12.8 12.8 0 014.3-2.8 14.1 14.1 0 015.4-1 14.4 14.4 0 015.4 1 12.5 12.5 0 017 7 13.8 13.8 0 011 5.4zm-3.8 0a11.4 11.4 0 00-.7-4 9.5 9.5 0 00-2-3.2 9 9 0 00-3-2.2 10.4 10.4 0 00-8 0 8.7 8.7 0 00-3 2.2 9.6 9.6 0 00-1.8 3.2 11.9 11.9 0 000 7.9 9.6 9.6 0 001.9 3.2 8.7 8.7 0 003 2.1 10.4 10.4 0 008 0 9 9 0 003-2.1 9.5 9.5 0 001.9-3.2 11.4 11.4 0 00.7-4zM427.1 177.1v-2.8c0-1-.2-1.9-.3-2.8h3.9v3.8h.1a8.4 8.4 0 013.6-3.3 10.3 10.3 0 014.6-1.2 12.4 12.4 0 012.2.2 8 8 0 012.2.8 7.7 7.7 0 012 1.6 8.7 8.7 0 011.6 2.7 8.3 8.3 0 013.5-3.9 9.4 9.4 0 014.9-1.4c3.2 0 5.7.9 7.2 2.6s2.3 4.2 2.3 7.3V197h-3.5V182a10.8 10.8 0 00-1.4-6q-1.4-2-5-2a6.6 6.6 0 00-3.4.8 6.3 6.3 0 00-2.2 2.1 9 9 0 00-1.2 3 15.6 15.6 0 00-.4 3.5v13.5h-3.6V182a10.8 10.8 0 00-1.3-6q-1.4-2-5-2a10.6 10.6 0 00-1.5.3 5.6 5.6 0 00-2.4 1.1 8.7 8.7 0 00-2.3 3 12 12 0 00-1 5.4v13h-3.6zM476.9 177.1l-.1-2.8-.2-2.8h3.8v3.8h.1a8.4 8.4 0 013.7-3.3 10.2 10.2 0 014.5-1.2 12.4 12.4 0 012.2.2 8.3 8.3 0 012.3.8 7.5 7.5 0 012 1.6 8.6 8.6 0 011.6 2.7 8.3 8.3 0 013.4-3.9 9.4 9.4 0 015-1.4q4.8 0 7.2 2.6t2.3 7.3V197H511V182a10.8 10.8 0 00-1.3-6q-1.4-2-5-2a6.5 6.5 0 00-3.4.8 6.3 6.3 0 00-2.2 2.1 9 9 0 00-1.2 3 15.6 15.6 0 00-.4 3.5v13.5H494V182a10.8 10.8 0 00-1.4-6q-1.3-2-5-2a10.4 10.4 0 00-1.5.3 5.6 5.6 0 00-2.4 1.1 8.5 8.5 0 00-2.3 3 12 12 0 00-1 5.4v13H477zM545 196.8c-.2-.6-.2-1.3-.2-2v-2h-.1a8.3 8.3 0 01-1.5 2 9.6 9.6 0 01-2.1 1.4 11.3 11.3 0 01-2.4 1 9.2 9.2 0 01-2.5.4c-3.3 0-5.7-.9-7.2-2.6s-2.4-4.1-2.4-7.3v-16.2h3.6v14a19.8 19.8 0 00.3 3.8 7 7 0 001.1 2.7 4.9 4.9 0 002.2 1.7 8.5 8.5 0 003.3.6 13 13 0 001.5-.3 6.6 6.6 0 002.6-1.2 8.6 8.6 0 002.5-2.9 11.2 11.2 0 001-5.4v-13h3.7V193.9l.2 3zM563.7 171.5l.1 2v2h.2a8.3 8.3 0 011.5-2 9.6 9.6 0 012-1.4 11.3 11.3 0 012.5-1 9.6 9.6 0 012.5-.4q4.9 0 7.2 2.6t2.4 7.3v16.2h-3.6v-14a12 12 0 00-1.5-6.5q-1.5-2.3-5.4-2.3a13 13 0 00-1.5.3 6.6 6.6 0 00-2.7 1.1 8.6 8.6 0 00-2.4 3 11.2 11.2 0 00-1.1 5.4v13h-3.6V177v-2.6l-.3-3zM599.2 161.7a2.4 2.4 0 01-.9 1.9 2.6 2.6 0 01-3.5 0 2.5 2.5 0 010-3.8 2.6 2.6 0 013.6 0 2.4 2.4 0 01.8 2zm-.9 35.2h-3.5v-25.4h3.6zM623.6 174.7h-7.3v15a8.2 8.2 0 00.3 2.3 3.3 3.3 0 00.7 1.4 2.6 2.6 0 001.2.7 5.4 5.4 0 001.5.2 7.1 7.1 0 001.9-.3 9 9 0 001.8-.7l.1 3.3a11.4 11.4 0 01-4.8 1 9 9 0 01-2.1-.3 5 5 0 01-2-1 5.5 5.5 0 01-1.6-2.1 8.3 8.3 0 01-.6-3.4v-16h-5.3v-3.3h5.3v-7.1h3.6v7.1h7.3zM641.5 192.5l7.7-21h4.4l-12.7 32a13.1 13.1 0 01-3 4.6 7 7 0 01-5 1.8h-1.7a6.7 6.7 0 01-1.6-.4l.4-3.5a5.7 5.7 0 002.7.6 3.8 3.8 0 003-1.2 10.2 10.2 0 002-3.4l1.8-4.8-10.5-25.7h4.5zM680.3 171.5h3.6v4.2h.1a9.3 9.3 0 012-2.2 12.3 12.3 0 012.6-1.5 11.7 11.7 0 012.6-1 13.7 13.7 0 012.7-.2 14.3 14.3 0 015.4 1 12.7 12.7 0 014.3 2.8 13 13 0 012.8 4.2 14.5 14.5 0 010 10.7 13 13 0 01-2.8 4.2 12.7 12.7 0 01-4.3 2.8 14.3 14.3 0 01-5.4 1 13.7 13.7 0 01-2.7-.3 11.7 11.7 0 01-2.6-.8 12.7 12.7 0 01-2.5-1.6 9.5 9.5 0 01-2.1-2.2h-.1v19.9h-3.6zm23.2 12.7a11.2 11.2 0 00-.7-4 9.5 9.5 0 00-2-3.2 9 9 0 00-3-2.2 9.6 9.6 0 00-4-.8 10.1 10.1 0 00-7.2 3 9.6 9.6 0 00-2.1 3.2 10.7 10.7 0 000 7.9 9.6 9.6 0 002 3.2 10.1 10.1 0 007.4 3 9.6 9.6 0 004-.9 9 9 0 003-2.1 9.5 9.5 0 001.9-3.2 11.2 11.2 0 00.7-4zM742.6 184.2a13.8 13.8 0 01-1 5.3 12.5 12.5 0 01-7 7 14.4 14.4 0 01-5.4 1 14.1 14.1 0 01-5.4-1 12.8 12.8 0 01-4.3-2.8 13 13 0 01-2.8-4.2 14.7 14.7 0 010-10.7 13 13 0 012.8-4.2 12.8 12.8 0 014.3-2.8 14.1 14.1 0 015.4-1 14.4 14.4 0 015.4 1 12.5 12.5 0 017 7 13.8 13.8 0 011 5.4zm-3.9 0a11.4 11.4 0 00-.7-4 9.5 9.5 0 00-1.9-3.2 9 9 0 00-3-2.2 10.4 10.4 0 00-8 0 8.7 8.7 0 00-3 2.2 9.6 9.6 0 00-1.9 3.2 11.9 11.9 0 000 7.9 9.6 9.6 0 002 3.2 8.7 8.7 0 003 2.1 10.4 10.4 0 008 0 9 9 0 003-2.1 9.5 9.5 0 001.8-3.2 11.4 11.4 0 00.7-4zM753.7 171.5l5.9 20.6h.1l6.8-20.6h3.7L777 192h.1l5.9-20.6h4.2l-8 25.4h-4l-6.8-20.9h-.1l-6.7 20.8h-4l-8-25.4zM797.8 185.1a10.6 10.6 0 001 3.6 9.4 9.4 0 004.8 4.8 8.8 8.8 0 003.6.7 9 9 0 005-1.3 10 10 0 003.1-3l2.8 2.2a13.8 13.8 0 01-5 4.2 14 14 0 01-5.9 1.2 13.5 13.5 0 01-5.2-1 12.3 12.3 0 01-4.2-2.8 13.4 13.4 0 01-2.7-4.2 13.8 13.8 0 01-1-5.3 14 14 0 011-5.4 13 13 0 012.7-4.2 12.4 12.4 0 014-2.8 12.6 12.6 0 015-1 12.3 12.3 0 015.2 1 11.5 11.5 0 013.9 2.8 11.8 11.8 0 012.3 4 14.7 14.7 0 01.8 4.9v1.6zm17.3-2.9a8.1 8.1 0 00-2.2-5.9 8 8 0 00-6-2.2 8.7 8.7 0 00-3.4.6 9.3 9.3 0 00-2.9 1.9 9 9 0 00-2 2.6 6.7 6.7 0 00-.7 3zM829.4 179.4V176l-.2-4.5h3.5v4.7h.1a7.4 7.4 0 011.1-2 8.2 8.2 0 014-3 9 9 0 013-.4 10 10 0 012.7.3l-.7 3.5a6 6 0 00-2.1-.2 7.4 7.4 0 00-3.5.8 8 8 0 00-2.5 2 8.4 8.4 0 00-1.4 2.6 9 9 0 00-.5 2.7v14.3h-3.5zM852 185.1a10.9 10.9 0 001 3.6 9.4 9.4 0 002 3 9.6 9.6 0 002.9 1.8 8.8 8.8 0 003.5.7 9 9 0 005-1.3 10 10 0 003.2-3l2.7 2.2a13.9 13.9 0 01-5 4.2 14 14 0 01-5.9 1.2 13.5 13.5 0 01-5.2-1 12.3 12.3 0 01-4.1-2.8 13.4 13.4 0 01-2.8-4.2 13.8 13.8 0 01-1-5.3 14.2 14.2 0 011-5.4 13.1 13.1 0 012.7-4.2 12.5 12.5 0 014.1-2.8 12.7 12.7 0 015-1 12.3 12.3 0 015.2 1 11.2 11.2 0 016.2 6.8 14.5 14.5 0 01.8 4.9v1.6zm17.3-2.9a8.1 8.1 0 00-2.1-5.9 8 8 0 00-6.1-2.2 8.7 8.7 0 00-3.4.6 9.3 9.3 0 00-2.8 1.9 8.8 8.8 0 00-2 2.6 6.7 6.7 0 00-.8 3zM908.6 196.8H905v-4.2h-.1a9.1 9.1 0 01-2 2.3 12.3 12.3 0 01-2.6 1.5 11.7 11.7 0 01-2.6.8 13.7 13.7 0 01-2.7.3 14.3 14.3 0 01-5.4-1 12.5 12.5 0 01-7-7 14.7 14.7 0 010-10.6 12.5 12.5 0 017-7 14.3 14.3 0 015.4-1 13.7 13.7 0 012.6.2 11.7 11.7 0 012.7.9 12 12 0 012.5 1.5 9 9 0 012 2.2h.2V156h3.6zm-23.2-12.6a11.4 11.4 0 00.7 4 9.3 9.3 0 002 3.2 9 9 0 003 2.1 9.6 9.6 0 004 .8 10.2 10.2 0 004-.8 9.9 9.9 0 003.2-2.1 9.8 9.8 0 002-3.2 10.7 10.7 0 000-8 9.8 9.8 0 00-2-3.2 9.9 9.9 0 00-3.3-2.1 10.2 10.2 0 00-4-.8 9.6 9.6 0 00-4 .8 9 9 0 00-3 2.1 9.3 9.3 0 00-1.9 3.2 11.4 11.4 0 00-.7 4zM951.7 174.7h-7.4v15a8.2 8.2 0 00.3 2.3 3.2 3.2 0 00.8 1.4 2.6 2.6 0 001.1.7 5.4 5.4 0 001.5.2 7 7 0 002-.3 8.7 8.7 0 001.7-.7l.2 3.3a11.4 11.4 0 01-4.9 1 9 9 0 01-2-.3 5 5 0 01-2-1 5.7 5.7 0 01-1.6-2.1 8.3 8.3 0 01-.6-3.4v-16h-5.4v-3.3h5.4v-7.1h3.6v7.1h7.3zM985.7 184.2a14 14 0 01-1 5.3 12.9 12.9 0 01-2.8 4.2 12.7 12.7 0 01-4.2 2.8 14.3 14.3 0 01-5.5 1 14.1 14.1 0 01-5.4-1 12.5 12.5 0 01-7-7 14.5 14.5 0 010-10.6 12.5 12.5 0 017-7 14.1 14.1 0 015.4-1 14.3 14.3 0 015.5 1 12.7 12.7 0 014.2 2.7 12.9 12.9 0 012.8 4.3 14 14 0 011 5.3zm-3.9 0a11.4 11.4 0 00-.7-4 9.6 9.6 0 00-1.9-3.2 9 9 0 00-3-2.2 10.4 10.4 0 00-8 0 8.8 8.8 0 00-3 2.2 9.7 9.7 0 00-1.9 3.2 11.9 11.9 0 000 7.9 9.7 9.7 0 002 3.2 8.8 8.8 0 003 2.1 10.4 10.4 0 008 0 9 9 0 003-2.1 9.6 9.6 0 001.8-3.2 11.4 11.4 0 00.7-4zM1014 196.8v-2-2h-.2a8.2 8.2 0 01-1.5 2 10 10 0 01-2 1.4 11 11 0 01-2.4 1 9.2 9.2 0 01-2.6.4q-4.9 0-7.2-2.6t-2.3-7.3v-16.2h3.6v14a19 19 0 00.3 3.8 7.2 7.2 0 001.1 2.7 4.9 4.9 0 002.1 1.7 8.4 8.4 0 003.4.6 12.7 12.7 0 001.5-.3 6.5 6.5 0 002.6-1.2 8.7 8.7 0 002.5-2.9 11.3 11.3 0 001-5.4v-13h3.6v19.8l.1 2.6.2 3zM1029.8 179.4V176l-.2-4.5h3.5v4.7h.1a7.7 7.7 0 011.1-2 8.7 8.7 0 011.7-1.7 8.2 8.2 0 012.4-1.2 9 9 0 013-.5 10 10 0 012.6.3l-.7 3.5a6 6 0 00-2-.2 7.4 7.4 0 00-3.6.8 8 8 0 00-2.4 2 8.2 8.2 0 00-1.5 2.6 8.7 8.7 0 00-.4 2.7v14.3h-3.6zM1056.2 161.7a2.4 2.4 0 01-.8 1.9 2.6 2.6 0 01-3.6 0 2.6 2.6 0 010-3.8 2.6 2.6 0 013.6 0 2.4 2.4 0 01.8 2zm-.8 35.2h-3.6v-25.4h3.6zM1081 177.5a6.7 6.7 0 00-2.2-2.5 5.8 5.8 0 00-3.3-1 8 8 0 00-1.9.3 5.6 5.6 0 00-1.7.7 3.8 3.8 0 00-1.2 1.1 3 3 0 00-.4 1.8 2.9 2.9 0 001.2 2.6 12.4 12.4 0 003.7 1.4l3.7.9a8.7 8.7 0 014.4 2.4 6.3 6.3 0 011.8 4.5 7.2 7.2 0 01-.9 3.6 7.3 7.3 0 01-2.2 2.4 9.6 9.6 0 01-3.2 1.4 15.3 15.3 0 01-3.6.4 13.3 13.3 0 01-5.5-1.1 10 10 0 01-4.3-3.8l3.1-2.1a8.5 8.5 0 002.8 2.7 7.3 7.3 0 003.9 1 9.5 9.5 0 002.2-.2 6.3 6.3 0 001.9-.8 4.3 4.3 0 001.4-1.3 3.5 3.5 0 00.5-2 3 3 0 00-1.4-2.6 12.6 12.6 0 00-3.5-1.4l-3.4-.8-1.8-.5a8.5 8.5 0 01-2.2-1.2 7 7 0 01-1.8-2 5.6 5.6 0 01-.7-3 7.1 7.1 0 01.7-3.4 6.8 6.8 0 012.2-2.4 9.9 9.9 0 013-1.4 13 13 0 013.4-.4 11.8 11.8 0 015 1 7.3 7.3 0 013.5 3.5zM1094.1 177.1v-2.8l-.2-2.8h3.8v3.8h.1a8.4 8.4 0 013.6-3.3 10.2 10.2 0 014.6-1.2 12.4 12.4 0 012.2.2 8.3 8.3 0 012.3.8 7.5 7.5 0 012 1.6 8.6 8.6 0 011.6 2.7 8.3 8.3 0 013.4-3.9 9.4 9.4 0 015-1.4c3.2 0 5.6.9 7.1 2.6s2.4 4.2 2.4 7.3V197h-3.6V182a10.7 10.7 0 00-1.4-6q-1.3-2-5-2a6.5 6.5 0 00-3.3.8 6.3 6.3 0 00-2.2 2.1 9 9 0 00-1.2 3 15.6 15.6 0 00-.4 3.5v13.5h-3.6V182a10.7 10.7 0 00-1.4-6q-1.3-2-5-2a10.4 10.4 0 00-1.5.3 5.6 5.6 0 00-2.4 1.1 8.6 8.6 0 00-2.2 3 12 12 0 00-1 5.4v13h-3.6zM134.4 40.3l16.1 11 17.4-12-31.3-21.7a17 17 0 00-19.5 0L45.2 67.2a19 19 0 00-8.1 15.6v8.4l10.3-10.3 10.2 10.2V90a14.4 14.4 0 016.3-12l55.4-37.8a13.3 13.3 0 0115.1 0zM301.2 94.3l-31.4 31.4H291V169a9.3 9.3 0 01-9.2 9.3h-56a9.3 9.3 0 01-9.3-9.3l.2-86.2a19 19 0 00-8.2-15.6L198 59.9l-17.3 11.9 9.2 6.2a14.4 14.4 0 016.2 12v86c0 12.6 10 22.8 22.3 22.8H289a22.6 22.6 0 0022.3-22.9v-50.1h21.2z" class="cls-1"/>
  <path d="M130.1 198.8a22.6 22.6 0 0022.3-23V90a14.4 14.4 0 016.3-12L214 40.2a13.3 13.3 0 0115.1 0L284.7 78a14.4 14.4 0 016.3 12v1.2L301.2 81l10.3 10.2v-8.4a19 19 0 00-8.2-15.6l-71.9-49.6a17 17 0 00-19.5 0L140 67.2a19 19 0 00-8.1 15.6l.1 86.2a9.3 9.3 0 01-9.2 9.3h-56a9.3 9.3 0 01-9.2-9.3v-43.3h21.1L47.4 94.3 16 125.7h21.1l.1 50.2c0 12.6 10 22.8 22.3 22.8z" class="cls-1"/>
</svg>
